<svg xmlns="http://www.w3.org/2000/svg" viewBox="0 0 1200 750" role="img" aria-labelledby="title desc">
<title id="title">제주 자연 일러스트</title>
<desc id="desc">오름과 바다, 돌담길을 표현한 그림</desc>
<defs>
  <linearGradient id="sky" x1="0" y1="0" x2="0" y2="1">
    <stop offset="0" stop-color="#36c5f0"/>
    <stop offset="1" stop-color="#dff8f1"/>
  </linearGradient>
  <linearGradient id="sea" x1="0" y1="0" x2="1" y2="1">
    <stop offset="0" stop-color="#4cc9e9"/>
    <stop offset="1" stop-color="#196f8c"/>
  </linearGradient>
</defs>
<rect width="1200" height="750" fill="url(#sky)"/>
<circle cx="1000" cy="125" r="65" fill="#ecb22e"/>
<rect y="390" width="1200" height="360" fill="url(#sea)"/>
<path d="M0 480 C180 420 340 430 520 485 C720 545 940 500 1200 440 L1200 750 L0 750 Z" fill="#2eb67d"/>
<ellipse cx="365" cy="430" rx="300" ry="165" fill="#3d8b5a"/>
<ellipse cx="365" cy="415" rx="165" ry="65" fill="#74bd72"/>
<path d="M600 750 C650 630 755 560 850 510 C930 468 1010 440 1120 420" fill="none" stroke="#e7d5a9" stroke-width="105"/>
<g fill="#3b393b">
  <rect x="50" y="600" width="86" height="50" rx="10"/>
  <rect x="145" y="580" width="90" height="58" rx="10"/>
  <rect x="245" y="600" width="88" height="50" rx="10"/>
  <rect x="345" y="575" width="92" height="62" rx="10"/>
  <rect x="445" y="598" width="88" height="52" rx="10"/>
</g>
<g transform="translate(170 475)">
  <rect x="0" y="0" width="26" height="90" rx="10" fill="#5a3d2c"/>
  <path d="M13 -5 C-40 -10 -55 30 -20 45 C-55 60 -30 95 15 75 C55 95 78 58 43 45 C75 20 55 -15 13 -5 Z" fill="#2f6f45"/>
</g>
<text x="64" y="92" font-family="Arial, sans-serif" font-size="56" font-weight="700" fill="#2f0e31">JEJU</text>
<text x="67" y="142" font-family="Arial, sans-serif" font-size="28" fill="#2f0e31">oreum · sea · walking path</text>
</svg>